# xmcd
#
# Track frame offsets: 
#        150
#        22237
#        40126
#        56436
#        71666
#        95070
#        115473
#        132219
#        145698
#        170167
#
# Disc length: 2478 seconds
#
# Revision: 0
# Processed by: cddbd v1.5.2PL0 Copyright (c) Steve Scherf et al.
# Submitted via: ExactAudioCopy v1.0b6
#
DISCID=9509ac0a
DTITLE=Bo Weavil - A son of pride
DYEAR=2015
DGENRE=Blues
TTITLE0=I'm just an animal
TTITLE1=A time in the wilderness
TTITLE2=I'm gonna crack
TTITLE3=Keep on runnin'
TTITLE4=Can't sleep at night
TTITLE5=I'm a groove maker
TTITLE6=Are you like me
TTITLE7=Stop buggin'
TTITLE8=It's such a beautiful day
TTITLE9=A new revolution
EXTD=
EXTT0=
EXTT1=
EXTT2=
EXTT3=
EXTT4=
EXTT5=
EXTT6=
EXTT7=
EXTT8=
EXTT9=
PLAYORDER=
